<svg id="Icons" xmlns="http://www.w3.org/2000/svg" viewBox="0 0 66 66"><defs><style>.cls-1{fill:#416894;}.cls-2{fill:#4c7aae;}.cls-3{opacity:0.15;}.cls-4{fill:#3dbb69;}.cls-5{fill:#fffcf2;}</style></defs><title>chat</title><g id="Chat"><g id="Circle_Shadow" data-name="Circle Shadow"><circle class="cls-1" cx="33" cy="34" r="31"/></g><g id="Circle"><circle class="cls-2" cx="33" cy="32" r="31"/></g><path id="Long_Shadow" data-name="Long Shadow" class="cls-3" d="M34,63a31,31,0,0,0,29.95-28.9L48.41,18.56,17.56,41.38,21,44.82V50Z"/><g id="Chat-2" data-name="Chat"><path class="cls-4" d="M47,18H19a2,2,0,0,0-2,2V40a2,2,0,0,0,2,2h2v8l12-8H47a2,2,0,0,0,2-2V20A2,2,0,0,0,47,18Z"/></g><g id="Dots"><path class="cls-5" d="M27,28a2,2,0,1,0,2,2A2,2,0,0,0,27,28Zm6,0a2,2,0,1,0,2,2A2,2,0,0,0,33,28Zm6,0a2,2,0,1,0,2,2A2,2,0,0,0,39,28Z"/></g></g></svg>